<svg width="512" height="511.01" xmlns="http://www.w3.org/2000/svg" clip-rule="evenodd" fill-rule="evenodd" image-rendering="optimizeQuality" text-rendering="geometricPrecision" shape-rendering="geometricPrecision">

 <g>
  <title>Layer 1</title>
  <path fill="#007fff" id="svg_1" d="m456.72,96.62l-115.49,115.5c22.46,31.03 35.72,69.17 35.72,110.41c0,52.04 -21.1,99.17 -55.2,133.27c-34.11,34.1 -81.23,55.21 -133.28,55.21c-52.03,0 -99.17,-21.11 -133.27,-55.21c-34.1,-34.1 -55.2,-81.23 -55.2,-133.27c0,-52.04 21.1,-99.17 55.2,-133.27c34.1,-34.1 81.23,-55.21 133.27,-55.21c42.91,0 82.47,14.35 114.16,38.5l117.26,-117.27l-62.84,0l0,-55.28l154.95,0l0,158.91l-55.28,0l0,-62.29zm-174.06,131.73c-24.1,-24.1 -57.41,-39.02 -94.19,-39.02s-70.08,14.92 -94.18,39.02c-24.1,24.1 -39.01,57.4 -39.01,94.18c0,36.78 14.91,70.09 39.01,94.19c24.1,24.1 57.4,39.01 94.18,39.01c36.78,0 70.09,-14.91 94.19,-39.01c24.1,-24.1 39.01,-57.41 39.01,-94.19s-14.91,-70.08 -39.01,-94.18z" fill-rule="nonzero"/>
 </g>
</svg>